<?xml version="1.0" standalone="no"?>
<!DOCTYPE svg PUBLIC "-//W3C//DTD SVG 20010904//EN"
 "http://www.w3.org/TR/2001/REC-SVG-20010904/DTD/svg10.dtd">
<svg version="1.0" xmlns="http://www.w3.org/2000/svg"
 width="1024.000000pt" height="1024.000000pt" viewBox="0 0 1024.000000 1024.000000"
 preserveAspectRatio="xMidYMid meet">
<metadata>
Created by potrace 1.14, written by Peter Selinger 2001-2017
</metadata>
<g transform="translate(0.000000,1024.000000) scale(0.100000,-0.100000)"
fill="#000000" stroke="none">
<path d="M0 5120 l0 -5120 4720 0 4720 0 0 80 0 80 240 0 240 0 0 -80 0 -80
160 0 160 0 0 5120 0 5120 -5120 0 -5120 0 0 -5120z m5450 3345 c68 -22 175
-92 225 -146 70 -78 145 -277 145 -386 l0 -28 232 0 233 0 48 -28 c32 -19 60
-47 85 -85 31 -48 36 -66 36 -112 0 -68 -14 -96 -209 -405 -80 -126 -152 -243
-161 -260 -9 -16 -45 -75 -78 -130 -34 -55 -79 -129 -101 -165 -21 -36 -58
-95 -82 -131 -47 -73 -50 -87 -28 -149 8 -23 26 -92 40 -154 37 -163 43 -181
70 -209 24 -23 34 -25 138 -29 129 -5 169 -20 231 -89 126 -139 107 -359 -39
-461 -56 -39 -92 -46 -235 -49 -184 -5 -173 0 -167 -73 2 -33 25 -241 51 -461
26 -220 49 -422 52 -450 3 -27 17 -84 30 -125 28 -89 73 -140 196 -227 43 -30
98 -78 123 -106 58 -66 115 -181 130 -260 l11 -62 174 -5 c156 -5 180 -8 222
-28 67 -33 104 -80 129 -163 21 -69 21 -73 5 -132 -20 -70 -59 -129 -111 -164
l-36 -24 3 -157 3 -157 89 -45 c117 -59 126 -74 126 -225 0 -98 -3 -114 -23
-149 -13 -21 -43 -51 -67 -67 l-43 -29 -1778 2 -1778 3 -41 40 c-140 137 -81
402 100 448 l55 14 3 160 2 160 -52 39 c-78 57 -109 125 -106 225 3 64 8 83
33 124 35 57 91 99 152 114 23 6 114 11 201 11 l159 0 7 63 c15 127 81 226
248 369 66 57 132 111 148 121 60 38 70 92 150 842 17 154 32 299 35 321 l6
42 -163 4 c-147 3 -167 6 -207 27 -91 48 -155 141 -167 245 -14 117 61 257
164 308 38 19 68 24 162 28 l115 5 32 65 c17 36 35 83 38 105 4 22 20 91 36
153 36 141 36 162 2 203 -16 17 -66 96 -113 175 -47 79 -109 183 -139 231
-129 210 -238 385 -293 470 -77 122 -98 168 -98 226 0 57 25 109 72 153 68 63
70 64 228 64 80 0 189 3 242 7 l97 6 5 66 c8 88 41 204 74 260 61 105 181 196
307 233 86 25 531 20 615 -7z"/>
</g>
</svg>
